# xmcd CD database file
#
# Track frame offsets:
#	150
#	10442
#	28181
#	46379
#	56553
#	73163
#	84723
#	105157
#	120855
#	144445
#	160930
#	181357
#
# Disc length: 2687 seconds
#
# Revision: 0
# Processed by: cddbd v1.5.2PL0 Copyright (c) Steve Scherf et al.
# Submitted via: CDex 1.79
#
DISCID=9b0a7d0c
DTITLE=Louis Armstrong - Portrait CD2/2
DYEAR=1900
DGENRE=Jazz
TTITLE0=My Bucket's got a Hole in it
TTITLE1=Dixie
TTITLE2=Panama
TTITLE3=Cornet Chop Suey
TTITLE4=I want a big Butter and Egg Man
TTITLE5=Bill Bailey
TTITLE6=Old Kentucky Home
TTITLE7=Sheik of Araby
TTITLE8=Struttin' with some Barbecue
TTITLE9=South
TTITLE10=Sweethearts on Parade
TTITLE11=Canal Srteet Blues
EXTD=
EXTT0=
EXTT1=
EXTT2=
EXTT3=
EXTT4=
EXTT5=
EXTT6=
EXTT7=
EXTT8=
EXTT9=
EXTT10=
EXTT11=
PLAYORDER=
